<?xml version="1.0" encoding="UTF-8" standalone="no"?>
<!-- Created with Inkscape (http://www.inkscape.org/) -->

<svg
   width="64.408005mm"
   height="71.489174mm"
   viewBox="0 0 64.408005 71.489174"
   version="1.1"
   id="svg945"
   xmlns="http://www.w3.org/2000/svg"
   xmlns:svg="http://www.w3.org/2000/svg">
  <defs
     id="defs942" />
  <g
     id="layer1"
     transform="translate(-16.357841,-11.905277)">
    <g
       id="g1227">
      <path
         style="fill:#ff614b;fill-opacity:1;stroke:none;stroke-width:0.264583;stroke-linecap:round;stroke-linejoin:round;stroke-miterlimit:3.42;paint-order:stroke fill markers"
         d="m 47.261938,38.114467 c 0,0 -9.147471,-6.479461 -14.483498,-4.954881 -5.336024,1.524579 -16.008075,10.290905 -16.389219,18.676088 -0.381145,8.385183 2.668012,24.774403 11.434341,29.348141 8.766326,4.573736 25.155546,-2.668013 25.155546,-2.668013 0,0 9.909762,7.622891 17.532656,3.811447 7.622892,-3.811447 13.721207,-43.831637 8.004038,-47.643084 -5.71717,-3.811447 -26.298983,-6.47946 -31.253864,3.430302 z"
         id="path1039" />
      <path
         style="fill:#f3b144;fill-opacity:1;stroke:none;stroke-width:0.264583;stroke-linecap:round;stroke-linejoin:round;stroke-miterlimit:3.42;paint-order:stroke fill markers"
         d="m 47.261938,38.114467 -5.717169,-19.819523 4.573735,-0.762289 1.143434,20.581812 4.573736,-17.15151 c 0,0 0,-5.71717 7.622894,-8.766328 7.622895,-3.049157 0.762286,18.676089 -12.19663,25.917838 z"
         id="path1107" />
    </g>
  </g>
</svg>
