<?xml version="1.0" encoding="UTF-8" standalone="no"?>
<!-- Created with Inkscape (http://www.inkscape.org/) -->

<svg
   width="72.358528mm"
   height="106.9257mm"
   viewBox="0 0 72.358528 106.9257"
   version="1.1"
   id="svg1255"
   xmlns="http://www.w3.org/2000/svg"
   xmlns:svg="http://www.w3.org/2000/svg">
  <defs
     id="defs1252" />
  <g
     id="layer1"
     transform="translate(-23.166858,-3.034362)">
    <g
       id="g2613">
      <path
         style="fill:#6f4988;fill-opacity:1;stroke-width:0.264583;stroke-linecap:round;stroke-linejoin:round;stroke-miterlimit:3.42;paint-order:stroke fill markers"
         d="m 23.177858,63.604356 c 0,0 -0.53902,-24.794919 5.929219,-29.646099 6.468239,-4.85118 50.128857,-16.170598 55.519057,-10.241379 5.390198,5.929218 11.858437,31.263157 10.780398,35.575318 -1.07804,4.31216 -72.228674,4.31216 -72.228674,4.31216 z"
         id="path1349" />
      <path
         style="fill:#f2ece3;fill-opacity:1;stroke-width:0.264583;stroke-linecap:round;stroke-linejoin:round;stroke-miterlimit:3.42;paint-order:stroke fill markers"
         d="m 56.597094,109.96007 c 0,0 17.78766,0 21.021781,-3.77314 3.234118,-3.77314 17.248637,-47.972774 17.248637,-47.972774 0,0 -39.348457,4.85118 -71.689654,5.3902 2.6951,17.787659 33.419236,46.355714 33.419236,46.355714 z"
         id="path1351" />
      <path
         style="fill:#f3b144;fill-opacity:1;stroke-width:0.264583;stroke-linecap:round;stroke-linejoin:round;stroke-miterlimit:3.42;paint-order:stroke fill markers"
         d="m 47.972776,28.029037 c 0,0 -16.170598,-9.163339 -11.85844,-14.014518 4.312161,-4.8511797 15.631581,10.241379 15.631581,10.241379 0,0 -9.163341,-24.255898 -1.61706,-18.8656985 7.546279,5.3901995 6.468237,18.8656985 6.468237,18.8656985 0,0 0.539023,-25.8729579 6.46824,-20.4827582 5.92922,5.3901995 -2.156079,22.0998182 -2.156079,22.0998182 z"
         id="path1598" />
    </g>
  </g>
</svg>
